<svg width="25" height="25" viewBox="0 0 25 25" fill="none" xmlns="http://www.w3.org/2000/svg">
<path d="M12.5 0.887217C13.6494 0.885108 14.7737 1.22311 15.7306 1.85848C16.6875 2.49385 17.4341 3.39805 17.8759 4.45674C18.3178 5.51543 18.435 6.68105 18.2129 7.80622C17.9907 8.93139 17.4391 9.96556 16.6278 10.778C15.8165 11.5903 14.7819 12.1445 13.655 12.3703C12.528 12.5961 11.3592 12.4834 10.2965 12.0465C9.23368 11.6096 8.32463 10.8681 7.68426 9.91573C7.0439 8.96338 6.70097 7.84297 6.69885 6.69618V6.68551C6.69885 5.14955 7.3097 3.67635 8.39731 2.58927C9.48492 1.50218 10.9604 0.890044 12.5 0.887217ZM12.5 14.6325C18.9932 14.6325 24.1129 18.9468 24.1129 21.0955V24.113H0.887054V21.0416C0.887054 18.8929 6.00612 14.6325 12.5 14.6325Z" stroke="#090909" stroke-width="0.725806" stroke-linecap="round" stroke-linejoin="round"/>
</svg>
